<svg width="14" height="14" viewBox="0 0 14 14" fill="none" xmlns="http://www.w3.org/2000/svg">
<path fill-rule="evenodd" clip-rule="evenodd" d="M7.0001 13.4001C8.69748 13.4001 10.3253 12.7258 11.5256 11.5256C12.7258 10.3253 13.4001 8.69748 13.4001 7.0001C13.4001 5.30271 12.7258 3.67485 11.5256 2.47461C10.3253 1.27438 8.69748 0.600098 7.0001 0.600098C5.30271 0.600098 3.67485 1.27438 2.47461 2.47461C1.27438 3.67485 0.600098 5.30271 0.600098 7.0001C0.600098 8.69748 1.27438 10.3253 2.47461 11.5256C3.67485 12.7258 5.30271 13.4001 7.0001 13.4001ZM10.0857 5.5529C10.132 5.48913 10.1653 5.41686 10.1837 5.34021C10.2021 5.26357 10.2053 5.18405 10.1929 5.10619C10.1806 5.02834 10.1531 4.95368 10.1119 4.88647C10.0707 4.81926 10.0167 4.76083 9.9529 4.7145C9.88913 4.66817 9.81686 4.63485 9.74021 4.61645C9.66357 4.59805 9.58405 4.59493 9.50619 4.60726C9.42834 4.61959 9.35368 4.64714 9.28647 4.68832C9.21926 4.72951 9.16083 4.78353 9.1145 4.8473L6.3281 8.6793L4.8241 7.1753C4.76872 7.11802 4.70249 7.07234 4.62928 7.04093C4.55606 7.00952 4.47732 6.99301 4.39765 6.99235C4.31799 6.9917 4.23899 7.00692 4.16526 7.03712C4.09154 7.06732 4.02457 7.11191 3.96826 7.16827C3.91195 7.22463 3.86743 7.29164 3.8373 7.36539C3.80716 7.43914 3.79202 7.51816 3.79275 7.59783C3.79348 7.67749 3.81007 7.75622 3.84155 7.8294C3.87303 7.90259 3.91877 7.96878 3.9761 8.0241L5.9761 10.0241C6.0374 10.0854 6.11127 10.1328 6.19261 10.1628C6.27396 10.1928 6.36085 10.2049 6.44731 10.1981C6.53376 10.1914 6.61772 10.1659 6.6934 10.1236C6.76908 10.0813 6.83469 10.023 6.8857 9.9529L10.0857 5.5529Z" fill="#EF2A89"/>
</svg>
