<svg width="11" height="18" viewBox="0 0 11 18" fill="none" xmlns="http://www.w3.org/2000/svg">
<path d="M5.67008 17.0669C3.92785 16.9138 2.27092 16.4628 0.750732 15.765C0.777511 14.1253 1.44768 12.5618 2.61671 11.4117C3.78575 10.2616 5.35997 9.61706 6.9999 9.61706C7.33698 9.61706 7.67129 9.64429 7.99988 9.69755M10.1249 4C10.1249 4.8288 9.79566 5.62366 9.20961 6.20971C8.62356 6.79576 7.8287 7.125 6.9999 7.125C6.1711 7.125 5.37624 6.79576 4.79019 6.20971C4.20414 5.62366 3.8749 4.8288 3.8749 4C3.8749 3.1712 4.20414 2.37634 4.79019 1.79029C5.37624 1.20424 6.1711 0.875 6.9999 0.875C7.8287 0.875 8.62356 1.20424 9.20961 1.79029C9.79566 2.37634 10.1249 3.1712 10.1249 4Z" stroke="white" stroke-width="1.5" stroke-linecap="round" stroke-linejoin="round"/>
</svg>
