<svg width="10" height="10" viewBox="0 0 10 10" fill="none" xmlns="http://www.w3.org/2000/svg">
<path fill-rule="evenodd" clip-rule="evenodd" d="M5.21188 0.0754386C5.15227 0.0266769 5.07734 0 5 0C4.92266 0 4.84773 0.0266769 4.78813 0.0754386C3.5397 1.10318 1.98664 1.70018 0.364375 1.77595C0.29128 1.77817 0.221288 1.80569 0.166586 1.85371C0.111883 1.90173 0.0759355 1.96721 0.0650005 2.03876C0.021596 2.36431 -0.000117574 2.69234 4.7877e-07 3.02072C4.7877e-07 6.21335 2.0375 8.93479 4.89625 9.98169C4.96322 10.0061 5.03679 10.0061 5.10375 9.98169C7.9625 8.93479 10 6.21335 10 3.02134C10 2.68742 9.97813 2.35969 9.935 2.03814C9.92405 1.96649 9.88801 1.90093 9.83318 1.8529C9.77835 1.80487 9.70821 1.77741 9.635 1.77533C8.01296 1.69943 6.46013 1.10305 5.21188 0.0754386ZM5 2.40236C5.12432 2.40236 5.24355 2.45122 5.33146 2.53819C5.41936 2.62517 5.46875 2.74313 5.46875 2.86613V5.03042C5.46875 5.15342 5.41936 5.27138 5.33146 5.35836C5.24355 5.44533 5.12432 5.49419 5 5.49419C4.87568 5.49419 4.75645 5.44533 4.66854 5.35836C4.58064 5.27138 4.53125 5.15342 4.53125 5.03042V2.86613C4.53125 2.74313 4.58064 2.62517 4.66854 2.53819C4.75645 2.45122 4.87568 2.40236 5 2.40236ZM5 7.96766C5.16576 7.96766 5.32473 7.90251 5.44194 7.78655C5.55915 7.67058 5.625 7.5133 5.625 7.3493C5.625 7.18529 5.55915 7.02801 5.44194 6.91204C5.32473 6.79608 5.16576 6.73093 5 6.73093C4.83424 6.73093 4.67527 6.79608 4.55806 6.91204C4.44085 7.02801 4.375 7.18529 4.375 7.3493C4.375 7.5133 4.44085 7.67058 4.55806 7.78655C4.67527 7.90251 4.83424 7.96766 5 7.96766Z" fill="#EF2A89"/>
</svg>
