<svg width="18" height="18" viewBox="0 0 18 18" fill="none" xmlns="http://www.w3.org/2000/svg">
<path d="M9 1.5V3.375M14.3033 3.69667L12.9775 5.0225M16.5 9H14.625M14.3033 14.3033L12.9775 12.9775M9 14.625V16.5M5.0225 12.9775L3.69667 14.3033M3.375 9H1.5M5.0225 5.0225L3.69667 3.69667M12.125 9C12.125 9.8288 11.7958 10.6237 11.2097 11.2097C10.6237 11.7958 9.8288 12.125 9 12.125C8.1712 12.125 7.37634 11.7958 6.79029 11.2097C6.20424 10.6237 5.875 9.8288 5.875 9C5.875 8.1712 6.20424 7.37634 6.79029 6.79029C7.37634 6.20424 8.1712 5.875 9 5.875C9.8288 5.875 10.6237 6.20424 11.2097 6.79029C11.7958 7.37634 12.125 8.1712 12.125 9Z" stroke="black" stroke-width="1.5" stroke-linecap="round" stroke-linejoin="round"/>
</svg>
