<svg width="18" height="18" viewBox="0 0 18 18" fill="none" xmlns="http://www.w3.org/2000/svg">
<path d="M1.0012 2.54242H16.1768C16.1768 1.50651 15.3033 0.666748 14.2258 0.666748H2.95214C1.87467 0.666748 1.0012 1.50651 1.0012 2.54242Z" fill="#EF2A89"/>
<path d="M7.17455 7.40576V3.44006H9.62717V17.3334H7.17455V11.7064H2.4226C2.4226 10.9147 3.09018 10.2729 3.91368 10.2729H7.17455V8.82591H0.666748C0.666748 8.04158 1.32809 7.40576 2.14389 7.40576H7.17455Z" fill="#EF2A89"/>
<path d="M15.8563 7.41916H10.8256V8.83931H17.3334C17.3334 8.05498 16.6721 7.41916 15.8563 7.41916Z" fill="#EF2A89"/>
<path d="M14.0865 10.2863H10.8256V11.7198H15.5776C15.5776 10.9281 14.91 10.2863 14.0865 10.2863Z" fill="#EF2A89"/>
</svg>
