<svg width="18" height="18" viewBox="0 0 18 18" fill="none" xmlns="http://www.w3.org/2000/svg">
<path d="M1.00095 2.54217H16.1765C16.1765 1.50627 15.3031 0.666504 14.2256 0.666504H2.9519C1.87442 0.666504 1.00095 1.50627 1.00095 2.54217Z" fill="black"/>
<path d="M7.17431 7.40552V3.43982H9.62693V17.3332H7.17431V11.7062H2.42236C2.42236 10.9144 3.08994 10.2726 3.91344 10.2726H7.17431V8.82567H0.666504C0.666504 8.04134 1.32784 7.40552 2.14365 7.40552H7.17431Z" fill="black"/>
<path d="M15.856 7.41892H10.8254V8.83907H17.3332C17.3332 8.05474 16.6718 7.41892 15.856 7.41892Z" fill="black"/>
<path d="M14.0862 10.286H10.8254V11.7196H15.5773C15.5773 10.9278 14.9097 10.286 14.0862 10.286Z" fill="black"/>
</svg>
