<svg width="18" height="16" viewBox="0 0 18 16" fill="none" xmlns="http://www.w3.org/2000/svg">
<path d="M12.3526 5.79019H16.5126L13.8618 3.13769C13.0084 2.28425 11.9453 1.67052 10.7795 1.3582C9.61366 1.04588 8.38616 1.04597 7.22037 1.35846C6.05459 1.67096 4.99162 2.28485 4.13832 3.13842C3.28501 3.99198 2.67145 5.05515 2.35932 6.22103M1.48765 14.3702V10.2102M1.48765 10.2102H5.64765M1.48765 10.2102L4.13765 12.8627C4.99108 13.7161 6.05414 14.3299 7.21997 14.6422C8.3858 14.9545 9.61331 14.9544 10.7791 14.6419C11.9449 14.3294 13.0078 13.7155 13.8611 12.862C14.7145 12.0084 15.328 10.9452 15.6402 9.77936M16.5126 1.63019V5.78853" stroke="#EF2A89" stroke-width="1.5" stroke-linecap="round" stroke-linejoin="round"/>
</svg>
