<svg width="18" height="16" viewBox="0 0 18 16" fill="none" xmlns="http://www.w3.org/2000/svg">
<path d="M12.3526 5.78995H16.5126L13.8618 3.13745C13.0084 2.28401 11.9453 1.67028 10.7795 1.35795C9.61366 1.04563 8.38616 1.04572 7.22037 1.35822C6.05459 1.67072 4.99162 2.28461 4.13832 3.13817C3.28501 3.99174 2.67145 5.0549 2.35932 6.22078M1.48765 14.3699V10.21M1.48765 10.21H5.64765M1.48765 10.21L4.13765 12.8624C4.99108 13.7159 6.05414 14.3296 7.21997 14.6419C8.3858 14.9543 9.61331 14.9542 10.7791 14.6417C11.9449 14.3292 13.0078 13.7153 13.8611 12.8617C14.7145 12.0082 15.328 10.945 15.6402 9.77912M16.5126 1.62995V5.78828" stroke="black" stroke-width="1.5" stroke-linecap="round" stroke-linejoin="round"/>
</svg>
