<svg width="18" height="16" viewBox="0 0 18 16" fill="none" xmlns="http://www.w3.org/2000/svg">
<path d="M16.5 8C16.5 7.50272 16.3025 7.02581 15.9508 6.67417C15.5992 6.32254 15.1223 6.125 14.625 6.125H11.5C11.5 6.78804 11.2366 7.42393 10.7678 7.89277C10.2989 8.36161 9.66304 8.625 9 8.625C8.33696 8.625 7.70107 8.36161 7.23223 7.89277C6.76339 7.42393 6.5 6.78804 6.5 6.125H3.375C2.87772 6.125 2.40081 6.32254 2.04917 6.67417C1.69754 7.02581 1.5 7.50272 1.5 8M16.5 8V13C16.5 13.4973 16.3025 13.9742 15.9508 14.3258C15.5992 14.6775 15.1223 14.875 14.625 14.875H3.375C2.87772 14.875 2.40081 14.6775 2.04917 14.3258C1.69754 13.9742 1.5 13.4973 1.5 13V8M16.5 8V5.5M1.5 8V5.5M16.5 5.5C16.5 5.00272 16.3025 4.52581 15.9508 4.17417C15.5992 3.82254 15.1223 3.625 14.625 3.625H3.375C2.87772 3.625 2.40081 3.82254 2.04917 4.17417C1.69754 4.52581 1.5 5.00272 1.5 5.5M16.5 5.5V3C16.5 2.50272 16.3025 2.02581 15.9508 1.67417C15.5992 1.32254 15.1223 1.125 14.625 1.125H3.375C2.87772 1.125 2.40081 1.32254 2.04917 1.67417C1.69754 2.02581 1.5 2.50272 1.5 3V5.5" stroke="black" stroke-opacity="0.7" stroke-width="1.5" stroke-linecap="round" stroke-linejoin="round"/>
</svg>
